<?xml version="1.0" encoding="UTF-8"?>
<svg width="35.281mm" height="13.233mm" version="1.1" viewBox="0 0 35.281 13.233" xmlns="http://www.w3.org/2000/svg">
 <defs>
  <clipPath id="clipPath857-9">
   <path d="m510.31 1100.3c-26.459-16.838-45.702-38.485-45.702-38.485l-9.621-130.69-1.604 126.68-44.9-2.405-0.802-134.7-9.621 137.1s-30.467 32.874-51.314 45.702c-20.846 12.829-71.359 32.072-71.359 32.072l22.45-178s18.441-3.208 40.089-11.225c21.649-8.018 73.765-53.72 73.765-53.72h42.494s19.243 16.838 33.676 26.459c14.431 9.622 76.971 39.288 76.971 39.288l24.054 177.2s-52.117-18.441-78.576-35.279"/>
  </clipPath>
  <linearGradient id="linearGradient869-4" x2="1" gradientTransform="matrix(169.57,322.99,322.99,-169.57,297.04,812.62)" gradientUnits="userSpaceOnUse">
   <stop stop-color="#1ca69f" offset="0"/>
   <stop stop-color="#0e74b6" offset=".5"/>
   <stop stop-color="#5356a2" offset="1"/>
  </linearGradient>
  <clipPath id="clipPath879-1">
   <path d="m0 1560h2340v-1560h-2340z"/>
  </clipPath>
 </defs>
 <g transform="translate(-20.893 -112.19)">
  <g transform="translate(-55.058 64.506)">
   <g transform="translate(-40.399 -35.19)">
    <g transform="matrix(.047007 0 0 -.047007 123.82 138.07)" stroke-width="7.5047">
     <g clip-path="url(#clipPath857-9)">
      <g stroke-width="7.5047">
       <g stroke-width="7.5047">
        <path d="m510.31 1100.3c-26.459-16.838-45.702-38.485-45.702-38.485l-9.621-130.69-1.604 126.68-44.9-2.405-0.802-134.7-9.621 137.1s-30.467 32.874-51.314 45.702c-20.846 12.829-71.359 32.072-71.359 32.072l22.45-178s18.441-3.208 40.089-11.225c21.649-8.018 73.765-53.72 73.765-53.72h42.494s19.243 16.838 33.676 26.459c14.431 9.622 76.971 39.288 76.971 39.288l24.054 177.2s-52.117-18.441-78.576-35.279" fill="url(#linearGradient869-4)"/>
       </g>
      </g>
     </g>
     <g clip-path="url(#clipPath879-1)">
      <g transform="translate(386.03,1059.1)">
       <path d="m0 0s-4.41 5.212-10.423 10.824c-6.013 5.613-16.036 10.023-16.036 10.023l8.018-63.341 10.824 17.639 11.626-24.455z" fill="#fff"/>
      </g>
      <g transform="translate(452.58,1069.1)">
       <path d="m0 0s18.04 37.283 48.909 58.129c30.868 20.847 66.949 33.676 66.949 33.676l-8.018-20.847-1.202 12.428s-65.747-26.86-106.64-83.386" fill="#eb008b"/>
      </g>
      <g transform="translate(440.15,1068.3)">
       <path d="m0 0c9.934 20.919 16.31 55.284 56.525 84.99 23.928 17.673 35.68 20.846 35.68 20.846l-8.017-26.459-0.803 16.036s-49.31-23.653-83.385-95.413" fill="#eb008b"/>
      </g>
      <g transform="translate(430.53,1068.3)">
       <path d="m0 0s1.116 27.231 14.432 53.319c19.644 38.486 47.706 51.715 47.706 51.715l-1.603-22.45s-2.005 8.82-3.608 9.221c-1.167 0.291-46.504-32.874-56.927-91.805" fill="#eb008b"/>
      </g>
      <g transform="translate(408.08,1069.1)">
       <path d="m0 0s-18.04 37.283-48.909 58.129c-30.869 20.847-66.949 33.676-66.949 33.676l8.018-20.847 1.203 12.428s65.746-26.86 106.64-83.386" fill="#eb008b"/>
      </g>
      <g transform="translate(420.51,1068.3)">
       <path d="m0 0c-9.934 20.919-16.31 55.284-56.526 84.99-23.928 17.673-35.68 20.846-35.68 20.846l8.018-26.459 0.802 16.036s49.31-23.653 83.386-95.413" fill="#eb008b"/>
      </g>
      <g transform="translate(430.13,1068.3)">
       <path d="m0 0s-1.116 27.231-14.433 53.319c-19.643 38.486-47.705 51.715-47.705 51.715l1.603-22.45s2.005 8.82 3.608 9.221c1.167 0.291 46.504-32.874 56.927-91.805" fill="#eb008b"/>
      </g>
     </g>
    </g>
    <g transform="matrix(.049903 0 0 .053557 38.464 88.066)" fill="#fff" stroke-width="6.8238" style="font-variant-caps:normal;font-variant-east-asian:normal;font-variant-ligatures:normal;font-variant-numeric:normal;inline-size:1440.84;white-space:pre" aria-label="مكتبة الإمام شرف الدين">
     <g transform="scale(1.036 .96528)" stroke-width="5.1179px" aria-label="مركز">
      <path d="m1859.6-3.1482q-3.636 3.8234-9.1462 3.8234-7.7219 0-11.845-3.6735-2.399 1.7993-6.2974 1.7993h-5.9975v-6.8972h4.3482q1.9492 0 3.561-1.312 1.6494-1.3494 1.8368-3.1862 0.7497-6.7847 5.8101-9.7835 3.5235-2.0991 6.5598-2.0991 6.5973 0 10.008 3.1487 3.636 3.3361 3.636 10.233 0 5.3603-2.474 7.9467zm-17.318-5.5102q2.3241 2.5864 8.2841 2.5864 1.7618 0 2.474-0.67472 1.9492-1.9867 1.9492-4.5731 0-2.8113-1.4994-4.2358-1.5744-1.5369-4.873-1.5369-1.7243 0-3.4486 1.1245-1.6868 1.1245-2.249 4.7605-0.2624 1.3869-0.6373 2.549z"/>
      <path d="m1808.3-21.815h6.8972q1.1245 4.1983 1.237 5.3228 0.3748 3.8609 3.1112 6.7472 1.5743 1.6493 5.3603 1.6493h2.8113v6.8972h-4.873q-4.873 0-6.7472-2.324-2.549 10.421-11.958 15.406-10.646 5.6602-22.716 5.6602v-6.8972q11.395 0 19.005-4.798 8.1717-5.1729 9.4836-12.97 0.3749-2.1741 0.3749-4.873 0-4.7231-1.9867-9.821z"/>
      <path d="m1759.7-1.199h-12.37v-6.8972h11.62q5.5478 0 7.2346-3.8984 0.5997-1.3494 0.5997-2.6989 0-2.5864-2.0242-5.0604l-11.62-14.244q-1.8742-2.2866-1.8742-5.3228 0-1.312 0.3748-2.549 1.1621-4.4232 5.0605-6.035l27.926-11.62v6.9721l-22.303 9.3711q-2.6614 1.1245-3.4485 2.6239-0.2249 0.41233-0.2249 1.3494 0 1.1995 1.162 2.5864l10.308 12.37q3.8235 4.6106 3.8235 9.2212 0 4.2358-2.3241 8.0217-3.561 5.8101-11.92 5.8101z"/>
      <path d="m1729.3-21.815h6.8972q1.1245 4.1983 1.237 5.3228 0.3748 3.8609 3.1112 6.7472 1.5743 1.6493 5.3603 1.6493h2.8113v6.8972h-4.873q-4.873 0-6.7472-2.324-2.5489 10.421-11.958 15.406-10.646 5.6602-22.716 5.6602v-6.8972q11.395 0 19.005-4.798 8.1716-5.1729 9.4836-12.97 0.3748-2.1741 0.3748-4.873 0-4.7231-1.9867-9.821zm-0.2624-14.994h5.6227v5.6227h-5.6227z"/>
     </g>
     <path d="m1725.8-59.081h6.9864v59.081h-6.9864z" style="font-variant-caps:normal;font-variant-east-asian:normal;font-variant-ligatures:normal;font-variant-numeric:normal"/>
     <path d="m1710.6-31.667q0 11.391-5.2778 19.668-2.0883 3.2274-5.012 5.9233-7.7838 6.8346-13.783 6.8346-4.0248 0-6.8725-1.215v-6.9864q3.6451 1.215 6.8725 1.215 4.2906 0 9.4544-5.7714l-18.605-41.539h6.7966l16.175 36.413q1.1011-1.6327 1.8605-3.721 1.4049-5.2019 1.4049-12.188v-26.047h6.9864zm-35.54 46.855 2.9617-0.68346q-1.6707-0.7594-2.2782-2.1263-0.6075-1.4049-0.6075-3.1135 0-3.6451 2.1263-5.2778 2.2022-1.7086 5.6954-1.7086 2.3542 0 4.3286 1.253v3.797q-1.8985-1.253-4.3286-1.253-2.506 0-3.1515 0.68346-1.1011 1.215-1.1011 2.2022 0 2.9237 3.5692 3.9489 1.253 0.3797 5.8093-0.72142v3.8729l-13.024 2.9237z" style="font-variant-caps:normal;font-variant-east-asian:normal;font-variant-ligatures:normal;font-variant-numeric:normal"/>
     <path d="m1665.5-1.9744q-3.683 3.8729-9.2646 3.8729-7.8218 0-11.998-3.721-2.4301 1.8225-6.3789 1.8225h-6.0752v-6.9864h4.4045q1.9744 0 3.6071-1.3289 1.6707-1.3669 1.8605-3.2274 0.7594-6.8725 5.8853-9.9101 3.5692-2.1263 6.6447-2.1263 6.6827 0 10.138 3.1895 3.683 3.3793 3.683 10.366 0 5.4297-2.506 8.0496zm-17.542-5.5815q2.3541 2.6199 8.3913 2.6199 1.7846 0 2.506-0.68346 1.9744-2.0124 1.9744-4.6323 0-2.8477-1.5187-4.2906-1.5948-1.5568-4.9361-1.5568-1.7466 0-3.4932 1.1391-1.7087 1.1391-2.2782 4.8222-0.2658 1.4049-0.6455 2.5819z" style="font-variant-caps:normal;font-variant-east-asian:normal;font-variant-ligatures:normal;font-variant-numeric:normal"/>
     <path d="m1616.2-14.087v-44.994h6.9865v44.538q0 4.0248 1.8605 5.8853 1.6707 1.6707 5.4297 1.6707h2.8477v6.9864h-4.9361q-5.8473 0-8.8849-3.4932-3.3034-3.8349-3.3034-10.594z" style="font-variant-caps:normal;font-variant-east-asian:normal;font-variant-ligatures:normal;font-variant-numeric:normal"/>
     <path d="m1583.9-11.201q4.6323 1.5947 7.518 1.5947 1.6707 0 2.468-0.83533 2.0124-2.1643 2.0124-4.3665 0-0.91127-0.2278-1.6707-0.7973-3.3413-3.0376-3.9868-1.5187-0.45564-3.2654-0.45564-2.2402 0-3.2653 1.0252-2.582 2.5819-2.582 5.1639 0 1.5188 0.3797 3.5312zm-4.5564 5.3158q-1.8984-1.0632-4.7462 1.8985-0.9492 0.98721-0.9492 3.9868v18.681h-7.594v-18.681q0-6.5688 4.5564-10.442 2.468-2.0883 5.8853-2.0883-0.076-1.5947-0.076-3.1135 0-5.6195 6.1511-10.632 2.9236-2.3921 6.4169-2.3921 2.9236 0 5.9232 1.3669 6.9105 3.1515 7.9737 9.4924 0.3037 1.7086 0.3037 3.8349 0 5.5436-3.721 8.0116-4.5564 3.0376-7.8977 3.0376-6.7586 0.07594-12.226-2.9616z" style="font-variant-caps:normal;font-variant-east-asian:normal;font-variant-ligatures:normal;font-variant-numeric:normal"/>
     <path d="m1887.7 88.075q-1.6327 2.2402-3.759 3.4932-2.8857 1.7466-6.6447 1.7466h-4.9361v-6.9864h2.8477q3.759 0 5.4297-1.6707 3.0376-3.0376 3.0376-6.8346v-7.2902h6.9864v5.9233q0 2.4301 1.6707 6.227 1.6327 3.759 5.5815 3.759 4.1387 0 5.8094-4.6323 1.4049-3.9109 1.4049-11.277h6.9864q0 7.7838 0.7214 9.6823 2.4301 6.4549 6.6068 6.4169 5.3917-0.07594 5.3917-10.632v-11.163h6.9864v12.986q0 7.556-3.4932 11.847-2.8478 3.4932-6.7207 4.4045-1.4049 0.34173-2.7338 0.34173-2.3921 0-4.4804-0.94924-5.2019-2.3162-5.8853-7.3282-1.8226 5.9233-5.4677 7.1763-2.5819 0.91127-5.0499 0.91127-3.7211 0-6.4549-1.8605-2.2782-1.5188-3.8349-4.2906zm14.846-40.324h5.6955v5.6955h-5.6955zm4.7462 9.4924h5.6955v5.6955h-5.6955zm-9.4924 0h5.6955v5.6955h-5.6955z" style="font-variant-caps:normal;font-variant-east-asian:normal;font-variant-ligatures:normal;font-variant-numeric:normal"/>
     <path d="m1854.1 72.431h6.9865q1.1391 4.2526 1.253 5.3917 0.3797 3.9109 3.1514 6.8346 1.5948 1.6707 5.4297 1.6707h2.8477v6.9864h-4.936q-4.9361 0-6.8346-2.3541-2.5819 10.556-12.112 15.606-10.783 5.7334-23.01 5.7334v-6.9864q11.543 0 19.251-4.8601 8.2774-5.2398 9.6063-13.138 0.3797-2.2022 0.3797-4.9361 0-4.7842-2.0124-9.9481z" style="font-variant-caps:normal;font-variant-east-asian:normal;font-variant-ligatures:normal;font-variant-numeric:normal"/>
     <path d="m1814.7 72.925q1.5567-1.6327 1.5567-4.5564 0-2.2402-2.506-4.1767-1.177-0.94924-2.8477-0.91127-1.9744 0.03797-3.4932 1.6327-1.5188 1.5568-1.5568 3.4932 0 3.0376 2.0884 4.4804 1.5188 0.94924 3.1135 0.94924 2.7338 0 3.6451-0.91127zm5.8853 12.074q-4.1767 6.8346-16.213 9.4924-10.366 2.3162-21.263 2.3162-11.201 0-16.137-1.5568-12.492-3.797-12.53-13.859-0.038-5.2398 2.3921-8.733h6.9864q-2.468 3.5692-2.468 8.733 0 4.4045 7.7079 7.2902 3.4172 1.291 14.049 1.291 12.188 0 20.124-2.1643 8.1635-2.2402 11.96-6.3409 1.3289-1.4428 2.0883-4.4045-2.3921 2.8477-7.0244 2.8477-5.05 0-7.8977-2.544-3.721-3.3034-3.721-8.2015 0-1.9744 0.3037-3.6451 0.8733-5.6195 6.5688-8.2394 2.9616-1.3669 5.8473-1.3669 3.4173 0 5.9233 1.8985 3.6451 2.7338 5.3917 6.6067 0.9113 2.0504 0.8733 7.2522-0.076 8.5812-2.9616 13.327zm-13.176-41.045h5.6955v5.6955h-5.6955z" style="font-variant-caps:normal;font-variant-east-asian:normal;font-variant-ligatures:normal;font-variant-numeric:normal"/>
     <path d="m1710.5 34.234h6.9864v59.081h-6.9864z" style="font-variant-caps:normal;font-variant-east-asian:normal;font-variant-ligatures:normal;font-variant-numeric:normal"/>
     <path d="m1695.8 79.228q0 6.7586-3.3033 10.594-3.0376 3.4932-8.8849 3.4932h-4.9361v-6.9864h2.8477q3.759 0 5.4297-1.6707 1.8605-1.8605 1.8605-5.8853v-44.538h6.9864z" style="font-variant-caps:normal;font-variant-east-asian:normal;font-variant-ligatures:normal;font-variant-numeric:normal"/>
     <path d="m1659.4 71.482q-2.1642-4.6323-9.0747-10.442h8.6191q3.6831 2.9616 6.7966 8.1635 3.0755 5.0879 3.0755 9.5304 0 2.7718 3.1515 5.9233 1.6707 1.6707 5.4297 1.6707h2.8477v6.9864h-4.9361q-5.5815 0-9.2646-4.9361-3.5311 4.8601-11.391 6.1131-1.7466 0.26579-3.4552 0.26579-3.8729 0-7.7838-1.4428v-6.9864q4.3665 1.5947 7.556 1.5947 1.253 0 2.5439-0.34173 6.5308-1.8605 7.8598-6.1131 0.3037-1.0252 0.3037-2.6199 0-2.5819-2.2782-7.3661z" style="font-variant-caps:normal;font-variant-east-asian:normal;font-variant-ligatures:normal;font-variant-numeric:normal"/>
     <path d="m1628.3 90.049q-2.7338 3.2654-8.695 3.2654h-3.4173v-6.9864h1.3289q3.759 0 5.4297-1.6707 1.8605-1.8605 1.8605-5.8853v-8.2394h6.9864v8.2394q0 7.1003-3.4932 11.277zm1.8985 8.9609h5.6955v5.6955h-5.6955zm-9.4924 0h5.6954v5.6955h-5.6954z" style="font-variant-caps:normal;font-variant-east-asian:normal;font-variant-ligatures:normal;font-variant-numeric:normal"/>
     <path d="m1605.1 71.254q1.6707 3.6831 2.6959 7.3282 0.8353 3.0376 2.7338 5.3158 2.0124 2.4301 4.2906 2.4301h2.8477v6.9864h-4.9361q-2.6958 0-3.9868-1.8225-0.1139 4.1387-3.4932 9.7202-4.5564 7.556-13.631 10.062-3.6831 1.0252-7.1763 1.0252-4.4045 0-8.6951-1.4049-12.454-4.0628-12.454-17.542 0-6.6447 1.7845-11.998h6.9865q-1.8606 5.2019-1.8606 11.998 0 8.9609 7.632 10.973 3.4172 0.91128 6.3029 0.91128 3.3414 0 6.341-0.7594 7.3661-1.8226 10.214-10.442 1.253-3.8349 1.253-8.0876 0-6.9864-3.8349-14.694zm-25.554-4.5184h5.6955v5.6955h-5.6955z" style="font-variant-caps:normal;font-variant-east-asian:normal;font-variant-ligatures:normal;font-variant-numeric:normal"/>
    </g>
   </g>
  </g>
 </g>
</svg>
