<?xml version="1.0" encoding="UTF-8"?>
<svg width="35.281mm" height="13.233mm" version="1.1" viewBox="0 0 35.281 13.233" xmlns="http://www.w3.org/2000/svg">
 <defs>
  <clipPath id="clipPath857-8">
   <path d="m510.31 1100.3c-26.459-16.838-45.702-38.485-45.702-38.485l-9.621-130.69-1.604 126.68-44.9-2.405-0.802-134.7-9.621 137.1s-30.467 32.874-51.314 45.702c-20.846 12.829-71.359 32.072-71.359 32.072l22.45-178s18.441-3.208 40.089-11.225c21.649-8.018 73.765-53.72 73.765-53.72h42.494s19.243 16.838 33.676 26.459c14.431 9.622 76.971 39.288 76.971 39.288l24.054 177.2s-52.117-18.441-78.576-35.279"/>
  </clipPath>
  <linearGradient id="linearGradient869-5" x2="1" gradientTransform="matrix(169.57,322.99,322.99,-169.57,297.04,812.62)" gradientUnits="userSpaceOnUse">
   <stop stop-color="#1ca69f" offset="0"/>
   <stop stop-color="#0e74b6" offset=".5"/>
   <stop stop-color="#5356a2" offset="1"/>
  </linearGradient>
  <clipPath id="clipPath879-3">
   <path d="m0 1560h2340v-1560h-2340z"/>
  </clipPath>
 </defs>
 <g transform="translate(-20.893 -112.19)">
  <g transform="translate(-55.058 64.506)">
   <g transform="matrix(.047007 0 0 -.047007 63.005 102.88)" stroke-width="7.5047">
    <g clip-path="url(#clipPath857-8)">
     <g stroke-width="7.5047">
      <g stroke-width="7.5047">
       <path d="m510.31 1100.3c-26.459-16.838-45.702-38.485-45.702-38.485l-9.621-130.69-1.604 126.68-44.9-2.405-0.802-134.7-9.621 137.1s-30.467 32.874-51.314 45.702c-20.846 12.829-71.359 32.072-71.359 32.072l22.45-178s18.441-3.208 40.089-11.225c21.649-8.018 73.765-53.72 73.765-53.72h42.494s19.243 16.838 33.676 26.459c14.431 9.622 76.971 39.288 76.971 39.288l24.054 177.2s-52.117-18.441-78.576-35.279" fill="url(#linearGradient869-5)"/>
      </g>
     </g>
    </g>
    <g clip-path="url(#clipPath879-3)">
     <g transform="translate(386.03,1059.1)">
      <path d="m0 0s-4.41 5.212-10.423 10.824c-6.013 5.613-16.036 10.023-16.036 10.023l8.018-63.341 10.824 17.639 11.626-24.455z" fill="#fff"/>
     </g>
     <g transform="translate(452.58,1069.1)">
      <path d="m0 0s18.04 37.283 48.909 58.129c30.868 20.847 66.949 33.676 66.949 33.676l-8.018-20.847-1.202 12.428s-65.747-26.86-106.64-83.386" fill="#eb008b"/>
     </g>
     <g transform="translate(440.15,1068.3)">
      <path d="m0 0c9.934 20.919 16.31 55.284 56.525 84.99 23.928 17.673 35.68 20.846 35.68 20.846l-8.017-26.459-0.803 16.036s-49.31-23.653-83.385-95.413" fill="#eb008b"/>
     </g>
     <g transform="translate(430.53,1068.3)">
      <path d="m0 0s1.116 27.231 14.432 53.319c19.644 38.486 47.706 51.715 47.706 51.715l-1.603-22.45s-2.005 8.82-3.608 9.221c-1.167 0.291-46.504-32.874-56.927-91.805" fill="#eb008b"/>
     </g>
     <g transform="translate(408.08,1069.1)">
      <path d="m0 0s-18.04 37.283-48.909 58.129c-30.869 20.847-66.949 33.676-66.949 33.676l8.018-20.847 1.203 12.428s65.746-26.86 106.64-83.386" fill="#eb008b"/>
     </g>
     <g transform="translate(420.51,1068.3)">
      <path d="m0 0c-9.934 20.919-16.31 55.284-56.526 84.99-23.928 17.673-35.68 20.846-35.68 20.846l8.018-26.459 0.802 16.036s49.31-23.653 83.386-95.413" fill="#eb008b"/>
     </g>
     <g transform="translate(430.13,1068.3)">
      <path d="m0 0s-1.116 27.231-14.433 53.319c-19.643 38.486-47.705 51.715-47.705 51.715l1.603-22.45s2.005 8.82 3.608 9.221c1.167 0.291 46.504-32.874 56.927-91.805" fill="#eb008b"/>
     </g>
    </g>
   </g>
   <text transform="matrix(.049903 0 0 .049903 92.061 51.536)" fill="#0e4877" font-family="sans-serif" font-size="56px" stroke-width="7.0693" style="font-variant-caps:normal;font-variant-east-asian:normal;font-variant-ligatures:normal;font-variant-numeric:normal;inline-size:1440.84;line-height:1.2;white-space:pre" xml:space="preserve"><tspan x="0" y="0"><tspan fill="#ffffff" font-family="sans-serif" font-size="60px" stroke-width="7.0693">Al-Imam
</tspan></tspan><tspan x="0" y="72.000001"><tspan fill="#ffffff" font-family="sans-serif" font-size="60px" stroke-width="7.0693">Sharaf El Din
</tspan></tspan><tspan x="0" y="144"><tspan fill="#ffffff" font-family="sans-serif" font-size="60px" stroke-width="7.0693">Center
</tspan></tspan></text>
  </g>
 </g>
</svg>
